<svg width="24" height="24" viewBox="0 0 24 24" fill="none" xmlns="http://www.w3.org/2000/svg">
<path fill-rule="evenodd" clip-rule="evenodd" d="M17.1659 3.03442C14.9912 2.78291 13.6164 3.9327 12 5.72926C10.3336 3.9327 9.00879 2.81884 6.83411 3.03442C3.88456 3.42068 1.56824 7.04973 2.06817 10.2207C2.90138 15.3049 7.06741 18.3052 12 21C16.9992 18.3052 21.1653 15.3049 21.9318 10.2207C22.4318 7.04973 20.1154 3.42068 17.1659 3.03442Z" fill="#FF77A0"/>
<mask id="mask0" mask-type="alpha" maskUnits="userSpaceOnUse" x="2" y="3" width="20" height="18">
<path fill-rule="evenodd" clip-rule="evenodd" d="M17.1659 3.03442C14.9912 2.78291 13.6164 3.9327 12 5.72926C10.3336 3.9327 9.00879 2.81884 6.83411 3.03442C3.88456 3.42068 1.56824 7.04973 2.06817 10.2207C2.90138 15.3049 7.06741 18.3052 12 21C16.9992 18.3052 21.1653 15.3049 21.9318 10.2207C22.4318 7.04973 20.1154 3.42068 17.1659 3.03442Z" fill="white"/>
</mask>
<g mask="url(#mask0)">
</g>
</svg>
