<svg width="24" height="24" viewBox="0 0 24 24" fill="none" xmlns="http://www.w3.org/2000/svg">
<path fill-rule="evenodd" clip-rule="evenodd" d="M16.5833 3C19.9128 3 22 5.86998 22 9.54566C22 14.2224 17.5696 18.6463 12.3046 20.8713L12 21L11.6954 20.8713C6.4304 18.6463 2 14.2224 2 9.54566C2 5.86998 4.08719 3 7.41667 3C9.33849 3 10.5588 3.63135 12 5.06723C13.4412 3.63135 14.6615 3 16.5833 3ZM20.3333 9.54566C20.3333 6.77739 18.8904 4.79333 16.5833 4.79333C14.9537 4.79333 14.0298 5.38058 12.5932 6.94739L12 7.59443L11.4068 6.94739C9.97023 5.38058 9.04633 4.79333 7.41667 4.79333C5.10958 4.79333 3.66667 6.77739 3.66667 9.54566C3.66667 13.2004 7.43915 17.0467 12 19.0701C16.5609 17.0467 20.3333 13.2004 20.3333 9.54566Z" fill="white"/>
<mask id="mask0" mask-type="alpha" maskUnits="userSpaceOnUse" x="2" y="3" width="20" height="18">
<path fill-rule="evenodd" clip-rule="evenodd" d="M16.5833 3C19.9128 3 22 5.86998 22 9.54566C22 14.2224 17.5696 18.6463 12.3046 20.8713L12 21L11.6954 20.8713C6.4304 18.6463 2 14.2224 2 9.54566C2 5.86998 4.08719 3 7.41667 3C9.33849 3 10.5588 3.63135 12 5.06723C13.4412 3.63135 14.6615 3 16.5833 3ZM20.3333 9.54566C20.3333 6.77739 18.8904 4.79333 16.5833 4.79333C14.9537 4.79333 14.0298 5.38058 12.5932 6.94739L12 7.59443L11.4068 6.94739C9.97023 5.38058 9.04633 4.79333 7.41667 4.79333C5.10958 4.79333 3.66667 6.77739 3.66667 9.54566C3.66667 13.2004 7.43915 17.0467 12 19.0701C16.5609 17.0467 20.3333 13.2004 20.3333 9.54566Z" fill="white"/>
</mask>
<g mask="url(#mask0)">
</g>
</svg>
